<?xml version="1.0" standalone="no"?>
<!DOCTYPE svg PUBLIC "-//W3C//DTD SVG 1.1//EN" "http://www.w3.org/Graphics/SVG/1.1/DTD/svg11.dtd" >
<svg xmlns="http://www.w3.org/2000/svg" xmlns:xlink="http://www.w3.org/1999/xlink" version="1.1">
<metadata></metadata>
<defs>
<font id="loewmedium" horiz-adv-x="1671" >
<font-face units-per-em="2048" ascent="1585" descent="-463" />
<missing-glyph horiz-adv-x="512" />
<glyph unicode="&#xfb01;" horiz-adv-x="1386" d="M51 874v150h164v76q0 167 99 260.5t257 93.5q96 0 203 -35l-26 -121q-71 23 -121 23q-95 0 -156 -61t-61 -164v-72h796v-1024h-194v874h-602v-874h-195v874h-164z" />
<glyph unicode="&#xfb02;" horiz-adv-x="1347" d="M51 874v150h164v76q0 167 99 260.5t257 93.5q78 0 148 -20h475v-1434h-195v1298h-251q-71 23 -121 23q-95 0 -156 -61t-61 -164v-72h321v-150h-321v-874h-195v874h-164z" />
<glyph horiz-adv-x="0" />
<glyph horiz-adv-x="682" />
<glyph unicode=" "  horiz-adv-x="512" />
<glyph unicode="&#x09;" horiz-adv-x="512" />
<glyph unicode="&#xa0;" horiz-adv-x="512" />
<glyph unicode="!" horiz-adv-x="403" d="M90 74.5q0 39.5 31 68.5q32 29 79 29t79 -29t32 -68.5t-32 -68.5t-79 -29t-79 29q-31 29 -31 68.5zM90 1434h221l-18 -1082h-184z" />
<glyph unicode="&#x22;" horiz-adv-x="681" d="M84 1454h158l-15 -520h-129zM440 1454h156l-12 -520h-131z" />
<glyph unicode="#" horiz-adv-x="1529" d="M76 373l26 149h248l72 410h-248l27 151h248l63 351h154l-62 -351h451l61 351h156l-62 -351h244l-27 -151h-243l-74 -410h244l-27 -149h-244l-65 -373h-154l66 373h-451l-67 -373h-154l66 373h-248zM504 522h452l72 410h-450z" />
<glyph unicode="$" horiz-adv-x="1443" d="M135 164l96 153q117 -75 262 -117t285 -42q134 0 217.5 56t83.5 159q0 110 -59 151q-3 2 -10.5 8t-9.5 7.5t-8.5 6t-10 6.5t-10 5.5t-12 5.5t-13 5.5t-16.5 6t-19 5.5l-75 24l-99 29q-41 8 -59 16q-134 36 -214.5 67.5t-144.5 74.5q-65 43 -93.5 102.5t-28.5 142.5 q0 181 117 286.5t315 123.5v229h176v-227q260 -18 455 -148l-89 -159q-104 65 -232 101t-247 36q-123 0 -197.5 -56t-74.5 -161q0 -75 61 -121q61 -43 256 -96q284 -79 373 -129q169 -88 184 -266q4 -32 4 -52q0 -184 -133 -293q-128 -105 -342 -120h-18v-226h-176v230 q-286 27 -494 176z" />
<glyph unicode="%" horiz-adv-x="1759" d="M76 1067q0 176 90.5 279.5t247.5 103.5t245 -104q91 -105 91 -279q0 -171 -91 -279q-89 -102 -247 -102q-155 0 -245.5 103.5t-90.5 277.5zM215 1067q0 -117 54 -187.5t145 -70.5t143 70q53 71 53 188q0 119 -53 190q-52 70 -145 70q-91 0 -144 -69.5t-53 -190.5z M238 -35l1099 1503h179l-1100 -1503h-178zM1010 367q0 172 90 276q88 105 248 105q157 0 247.5 -103.5t90.5 -277.5q0 -173 -90.5 -277t-247.5 -104q-160 0 -248 102q-90 107 -90 279zM1149 367q0 -120 53 -191q55 -70 146 -70q93 0 145 70q53 71 53 191q0 117 -53 188 q-54 72 -145 72q-89 0 -146 -72q-53 -71 -53 -188z" />
<glyph unicode="&#x26;" horiz-adv-x="1550" d="M147 338q-9 237 320 407l55 27l-43 51q-67 78 -96 135q-27 53 -27 132q0 70 23.5 130.5t63 102.5t92 72t109.5 44.5t116 14.5q145 0 252 -88q106 -87 106 -225q0 -127 -55 -206t-168 -138l-119 -58l338 -379q101 113 166 302l139 -66q-75 -217 -190 -352l145 -160 l-145 -109l-119 136q-176 -150 -418 -162q-224 -9 -379 98q-157 109 -166 291zM346 356q6 -118 105.5 -184.5t240.5 -60.5q179 9 299 129l-362 411l-62 -30q-227 -111 -221 -265zM522 1098q0 -52 23 -94q23 -40 73 -97l54 -59l141 67q77 39 112.5 86.5t35.5 128.5 q0 83 -61.5 134t-143.5 51q-97 0 -165.5 -59t-68.5 -158z" />
<glyph unicode="'" horiz-adv-x="325" d="M84 1454h158l-15 -520h-129z" />
<glyph unicode="(" horiz-adv-x="534" d="M84 639q0 218 66 461q62 227 161 405l166 -82q-80 -160 -131 -368q-51 -205 -51 -416q0 -206 53 -426q55 -214 133 -371l-166 -82q-97 174 -163 412q-68 245 -68 467z" />
<glyph unicode=")" horiz-adv-x="534" d="M51 -158q77 150 133 373t56 424q0 198 -54 416q-51 208 -131 368l166 82q101 -181 162 -405q66 -243 66 -461q0 -222 -68 -467q-65 -235 -164 -412z" />
<glyph unicode="*" horiz-adv-x="800" d="M84 1180l39 116l221 -75l-4 233h123l-4 -233l221 75l37 -116l-223 -68l141 -188l-98 -72l-136 192l-135 -192l-98 72l141 188z" />
<glyph unicode="+" horiz-adv-x="1021" d="M84 481v152h352v350h150v-350h352v-152h-352v-350h-150v350h-352z" />
<glyph unicode="," horiz-adv-x="407" d="M51 -242l111 230q-62 27 -62 88q0 38 32.5 67t76.5 29q47 0 80 -28.5t33 -67.5q0 -30 -15 -51l-194 -295z" />
<glyph unicode="-" horiz-adv-x="872" d="M84 451v161h704v-161h-704z" />
<glyph unicode="." horiz-adv-x="391" d="M85 74.5q0 39.5 32 68.5t78.5 29t78.5 -29t32 -68.5t-32 -68.5t-78.5 -29t-78.5 29t-32 68.5z" />
<glyph unicode="/" horiz-adv-x="1017" d="M63 -35l717 1503h176l-716 -1503h-177z" />
<glyph unicode="0" horiz-adv-x="1505" d="M123 696q0 331 168 523q170 194 459 194q290 0 460 -194t170 -523q0 -328 -170 -522t-460 -194q-289 0 -459 194q-168 192 -168 522zM334 696q0 -244 110 -387q113 -143 306 -143q195 0 305 143q112 141 112 387t-112 387q-111 144 -305 144q-192 0 -306 -144 q-110 -143 -110 -387z" />
<glyph unicode="1" horiz-adv-x="763" d="M66 1307l346 86h166v-1393h-207v1208l-271 -59z" />
<glyph unicode="2" horiz-adv-x="1224" d="M86 1126q192 287 537 287q203 0 340 -113q141 -111 141 -303q0 -111 -72 -215q-73 -106 -239 -243l-381 -369h723v-170h-1041v162l619 540q103 97 140.5 156t37.5 125q0 111 -80 179.5t-201 68.5t-214.5 -52.5t-176.5 -162.5z" />
<glyph unicode="3" horiz-adv-x="1265" d="M86 158l125 133q183 -136 377 -133q155 0 249.5 77.5t94.5 213.5q0 108 -85.5 168.5t-223.5 60.5q-117 0 -230 -39l-37 115l475 469h-659v170h913v-156l-458 -451q82 9 161 0q161 -20 257 -113.5t96 -234.5q0 -210 -150 -336q-149 -122 -391 -122q-266 0 -514 178z" />
<glyph unicode="4" horiz-adv-x="1343" d="M72 520l721 873h239v-881h236v-158h-236v-354h-209v354h-727zM291 512h534v641z" />
<glyph unicode="5" horiz-adv-x="1255" d="M86 199l109 120q163 -166 397 -163q145 0 246 84q98 85 98 221q0 128 -92.5 206t-227.5 78q-201 0 -323 -122l-131 69l16 701h887v-170h-700l-3 -422q125 84 291 84q212 0 351 -115t139 -324q0 -210 -154 -340q-150 -126 -377 -126q-157 0 -293 56t-233 163z" />
<glyph unicode="6" horiz-adv-x="1298" d="M123 666q0 356 154 553.5t440 193.5q240 0 436 -141l-88 -131q-144 106 -326 106q-185 0 -289 -131t-110 -366l-2 -56q56 94 163.5 147.5t243.5 53.5q212 0 338 -123q127 -124 127 -311q0 -205 -143 -342q-142 -139 -373 -139q-131 0 -237.5 43t-171.5 114 q-59 67 -99 162q-63 159 -63 367zM340 500q8 -73 30 -134t61.5 -115t106 -85t154.5 -31q141 0 231.5 87.5t90.5 226.5q0 140 -90 226.5t-232 86.5q-140 0 -236.5 -72t-115.5 -190z" />
<glyph unicode="7" horiz-adv-x="1163" d="M76 1212v181h1040v-168l-704 -1225h-236l707 1212h-807z" />
<glyph unicode="8" horiz-adv-x="1355" d="M123 377q0 134 82 229t229 133q-123 41 -192.5 121.5t-69.5 196.5q0 153 143 254q144 102 361 102q218 0 362 -102t144 -254q0 -116 -69 -197.5t-195 -120.5q148 -38 230.5 -133t82.5 -229q0 -171 -156 -285q-150 -112 -399 -112q-247 0 -400 112q-153 114 -153 285z M328 399q0 -115 96.5 -190.5t251.5 -75.5q156 0 253 75.5t97 190.5q0 123 -94.5 195t-255.5 72q-118 0 -219 -52q-58 -27 -93.5 -84t-35.5 -131zM362 1028q0 -109 86.5 -173t227.5 -64q140 0 227.5 63.5t87.5 173.5q0 100 -90 168t-225 68q-133 0 -223.5 -68t-90.5 -168z " />
<glyph unicode="9" horiz-adv-x="1298" d="M86 934q0 202 141 340q145 139 373 139q134 0 240 -43t170 -115q59 -65 98 -163q66 -162 66 -363q0 -352 -154 -553q-150 -199 -440 -196q-242 0 -439 141l90 133q143 -107 324 -107q184 0 287.5 128.5t111.5 359.5q2 20 2 63q-56 -93 -162.5 -146.5t-242.5 -53.5 q-214 0 -340 123q-125 122 -125 313zM281 944q0 -137 90 -227q89 -86 231 -86q141 0 237 71.5t115 190.5q-6 58 -20 107.5t-41.5 98t-65 82.5t-95.5 55t-130 21q-143 0 -231 -88q-90 -87 -90 -225z" />
<glyph unicode=":" horiz-adv-x="382" d="M76 950q0 41 34 69.5t76 28.5t78 -28q25 -21 30 -50.5t-6.5 -54.5t-39 -43t-62.5 -18q-45 0 -77.5 28.5t-32.5 67.5zM77 74.5q0 39.5 32 68.5t78 29t77 -29q32 -29 32 -68.5t-32 -68.5q-31 -29 -77 -29t-78 29t-32 68.5z" />
<glyph unicode=";" horiz-adv-x="407" d="M51 -242l111 230q-62 27 -62 88q0 38 32.5 67t76.5 29q47 0 80 -28.5t33 -67.5q0 -30 -15 -51l-194 -295zM100 951.5q0 39.5 31 68.5q32 29 79 29t79 -29t32 -68.5t-32 -68.5t-79 -29t-79 29q-31 29 -31 68.5z" />
<glyph unicode="&#x3c;" horiz-adv-x="1169" d="M84 539v206l999 455v-192l-804 -365l804 -367v-192z" />
<glyph unicode="=" horiz-adv-x="1206" d="M84 303v152h1038v-152h-1038zM84 721v151h1038v-151h-1038z" />
<glyph unicode="&#x3e;" horiz-adv-x="1169" d="M84 84v192l807 367l-807 365v192l999 -455v-206z" />
<glyph unicode="?" horiz-adv-x="1146" d="M86 1044q25 190 160 300t342 110q208 0 334.5 -107.5t126.5 -297.5q0 -69 -29 -138q-28 -60 -65.5 -104t-110.5 -109l-45 -39q-50 -47 -72 -71q-23 -26 -43 -74q-16 -35 -16 -102l-2 -60h-177l-4 88q0 108 45 189q17 33 76 92l53 51l58 51q65 59 93 106t28 107 q0 112 -73 176t-196 64t-202.5 -66.5t-92.5 -183.5zM467 73.5q0 40.5 31 69.5q32 29 78.5 29t78.5 -29t32 -69.5t-32 -69.5q-32 -26 -78.5 -26t-78.5 26q-31 29 -31 69.5z" />
<glyph unicode="@" horiz-adv-x="2148" d="M143 502q-4 206 60 382t182.5 302.5t296 197.5t391.5 70q217 0 394 -71t295 -197.5t181.5 -301.5t63.5 -382q0 -226 -129 -352q-127 -124 -326 -127q-156 0 -276 69v109q-118 -127 -285 -127q-168 0 -278.5 121t-110.5 294q0 175 110.5 295.5t278.5 120.5q166 0 285 -125 v119h149v-709q53 -24 119 -24q132 0 214.5 91.5t82.5 242.5q2 171 -51 318.5t-151 254.5t-244.5 167.5t-321.5 59.5q-177 0 -321.5 -60t-241 -166.5t-149 -253.5t-52.5 -320q0 -353 207 -580q204 -223 557 -223q112 0 234 29l39 -148q-123 -33 -273 -33q-210 -1 -386.5 70.5 t-296.5 198.5t-185 304t-62 384zM750 489q0 -118 86 -204q87 -84 204 -84q70 0 131.5 32.5t104.5 88.5v335q-42 57 -103.5 89t-132.5 32q-117 0 -204 -84q-86 -83 -86 -205z" />
<glyph unicode="A" d="M76 0l622 1434h271l626 -1434h-245l-152 346h-725l-151 -346h-246zM530 514h611l-305 692z" />
<glyph unicode="B" horiz-adv-x="1550" d="M215 0v1434h682q225 0 347 -92q121 -91 120 -264q0 -250 -248 -326q161 -34 240.5 -132t79.5 -235q0 -60 -15 -113.5t-51.5 -104t-91.5 -87t-140.5 -58.5t-193.5 -22h-729zM422 170h473q164 0 245 68t81 180q0 49 -16.5 91t-52 78.5t-101.5 57.5t-156 21h-473v-496z M422 807h418q148 0 228.5 58t80.5 169q0 112 -79.5 171t-229.5 59h-418v-457z" />
<glyph unicode="C" horiz-adv-x="1605" d="M156 717q0 150 60 286.5t160.5 235t239.5 157t291 58.5q176 0 330 -75t260 -208l-176 -104q-159 193 -412 193q-226 0 -383 -160q-155 -155 -155 -383q0 -227 155 -385q158 -158 383 -158q253 0 412 193l176 -105q-106 -132 -260 -207t-330 -75h-19q-138 0 -269 55 q-140 59 -242 159.5t-163 238.5q-58 132 -58 270v14z" />
<glyph unicode="D" horiz-adv-x="1695" d="M215 0v1434h565h15q144 0 278 -53q141 -56 244 -152.5t163 -231.5q58 -129 58 -268v-14v-14q0 -139 -58 -266q-60 -134 -163 -230t-244 -152q-134 -53 -278 -53h-15h-565zM422 186h350q227 0 393 152q162 152 162 379q0 228 -162 377q-163 153 -393 153h-350v-1061z" />
<glyph unicode="E" horiz-adv-x="1431" d="M215 0v1434h1090v-187h-883v-434h815v-176h-815v-451h901v-186h-1108z" />
<glyph unicode="F" horiz-adv-x="1363" d="M215 0v1434h1040v-187h-833v-477h762v-176h-762v-594h-207z" />
<glyph unicode="G" horiz-adv-x="1718" d="M156 717q0 217 106 383q108 170 283 262t381 92q308 -3 532 -199l-135 -141q-170 150 -397 150q-228 0 -394 -158q-161 -154 -161 -389q0 -225 157 -385q158 -158 385 -158q234 0 408 137v295h-395v150h594v-557q-260 -219 -607 -219h-19q-140 0 -272 55 q-142 59 -245 159.5t-164 238.5q-57 130 -57 266v18z" />
<glyph unicode="H" horiz-adv-x="1705" d="M215 0v1434h207v-619h860v619h207v-1434h-207v629h-860v-629h-207z" />
<glyph unicode="I" horiz-adv-x="638" d="M215 0v1434h207v-1434h-207z" />
<glyph unicode="J" horiz-adv-x="1255" d="M63 186l166 111q115 -127 291 -127q149 0 231.5 91t82.5 267v906h206v-906q0 -548 -510 -548q-317 0 -467 206z" />
<glyph unicode="K" horiz-adv-x="1546" d="M217 0v1434h207v-783l739 783h279l-541 -576l567 -858h-264l-442 694l-338 -346v-348h-207z" />
<glyph unicode="L" horiz-adv-x="1286" d="M215 0v1434h207v-1248h786v-186h-993z" />
<glyph unicode="M" horiz-adv-x="2107" d="M205 0v1434h274l568 -949l567 949h274v-1434h-202v1163l-599 -1005h-81l-598 1005v-1163h-203z" />
<glyph unicode="N" horiz-adv-x="1675" d="M199 0v1434h221l850 -1104v1104h203v-1434h-222l-850 1104v-1104h-202z" />
<glyph unicode="O" horiz-adv-x="1828" d="M156 717q0 200 102 370t276 268.5t379 98.5q155 0 296 -58t242 -157t160.5 -235.5t59.5 -286.5v-14q1 -141 -57 -271q-60 -138 -164 -238q-102 -100 -244 -159q-133 -55 -274 -55h-19h-19q-140 0 -272 55q-142 59 -245 159.5t-164 238.5q-57 130 -57 266v18zM371 717 q0 -225 157 -385q158 -158 385 -158t385 158q158 161 158 385v11q0 138 -69 260q-72 126 -199 200q-122 72 -264 72h-11q-228 0 -385 -160q-157 -157 -157 -383z" />
<glyph unicode="P" horiz-adv-x="1529" d="M215 0v1434h586q311 0 455.5 -118.5t144.5 -371.5q0 -245 -146.5 -362t-449.5 -117h-383v-465h-207zM422 627h375q201 0 295 75t94 236q0 164 -93.5 239.5t-297.5 75.5h-373v-626z" />
<glyph unicode="Q" horiz-adv-x="1855" d="M156 717q0 204 100 370q103 172 276 269q174 98 381 98h15q143 0 278 -56q141 -59 244 -159t164 -237q57 -132 57 -271v-14q0 -290 -203 -496l232 -231l-115 -105l-233 234q-195 -139 -439 -139q-207 0 -381 98t-276 268q-100 166 -100 371zM373 717q0 -227 155 -385 q158 -158 385 -158q159 0 287 96l-215 215l113 107l217 -217q141 141 141 342q0 225 -158 383q-157 160 -385 160t-385 -160q-155 -155 -155 -383z" />
<glyph unicode="R" horiz-adv-x="1560" d="M215 0v1434h619q319 0 459.5 -108.5t140.5 -350.5q0 -181 -78.5 -284.5t-249.5 -141.5l377 -549h-238l-354 522q-62 -4 -105 -4h-364v-518h-207zM422 680h422q204 0 289.5 66t85.5 217q0 153 -85.5 218.5t-289.5 65.5h-422v-567z" />
<glyph unicode="S" horiz-adv-x="1443" d="M106 162l95 155q123 -75 276 -117t301 -42q146 0 237 56t91 159q0 62 -20.5 101.5t-65.5 64.5q-33 19 -52 27.5t-63 19.5q-105 32 -164 45l-67 18q-139 35 -224.5 67t-154.5 75q-127 83 -127 245q0 105 42.5 186.5t118 131.5t172.5 75t212 25q153 0 306 -41t265 -113 l-88 -159q-110 63 -246.5 100t-259.5 37q-134 0 -216.5 -56t-82.5 -161q0 -73 66 -121q67 -43 274 -96q301 -78 397 -129q172 -88 193 -260q2 -18 2 -58q0 -200 -158 -309q-156 -108 -407 -108q-180 0 -351.5 48t-300.5 134z" />
<glyph unicode="T" horiz-adv-x="1314" d="M76 1255v179h1163v-179h-477v-1255h-209v1255h-477z" />
<glyph unicode="U" horiz-adv-x="1681" d="M215 641v793h207v-793q0 -226 113 -348.5t311 -122.5q199 0 312.5 122.5t113.5 348.5v793h207v-793q0 -317 -168 -489t-465 -172q-294 0 -462.5 172t-168.5 489z" />
<glyph unicode="V" horiz-adv-x="1630" d="M76 1434h246l493 -1194l492 1194h247l-604 -1434h-272z" />
<glyph unicode="W" horiz-adv-x="2291" d="M76 1434h231l375 -1121l358 1121h211l361 -1121l373 1121h231l-485 -1434h-220l-364 1116l-365 -1116h-219z" />
<glyph unicode="X" horiz-adv-x="1542" d="M76 0l563 733l-541 701h256l420 -537l420 537h250l-539 -703l561 -731h-254l-444 567l-442 -567h-250z" />
<glyph unicode="Y" horiz-adv-x="1572" d="M76 1434h248l462 -699l465 699h246l-608 -918v-516h-207v514z" />
<glyph unicode="Z" horiz-adv-x="1409" d="M106 0v154l867 1095h-826v185h1129v-152l-877 -1098h899v-184h-1192z" />
<glyph unicode="[" horiz-adv-x="616" d="M84 -231v1728h481v-137h-295v-1454h295v-137h-481z" />
<glyph unicode="\" horiz-adv-x="1017" d="M63 1468h177l716 -1503h-176z" />
<glyph unicode="]" horiz-adv-x="616" d="M51 -94h293v1454h-293v137h479v-1728h-479v137z" />
<glyph unicode="^" horiz-adv-x="1019" d="M84 731l305 723h242l305 -723h-188l-238 565l-238 -565h-188z" />
<glyph unicode="_" horiz-adv-x="1376" d="M84 -166h1208v-117h-1208v117z" />
<glyph unicode="`" horiz-adv-x="604" d="M84 1470h209l227 -325h-168z" />
<glyph unicode="a" horiz-adv-x="1234" d="M106 307q0 145 104 223t290 78h387v37q0 122 -75 185t-208 63q-188 0 -354 -117l-60 125q213 140 463 143q201 0 314.5 -96t113.5 -286v-662h-194v129q-174 -149 -428 -149q-156 0 -254.5 90t-98.5 237zM297 326q0 -102 67.5 -165t176.5 -63q204 0 346 109v321h-316 q-132 0 -203 -51.5t-71 -150.5z" />
<glyph unicode="b" horiz-adv-x="1343" d="M168 0v1434h194v-553q150 163 367 163q141 0 254.5 -71t176.5 -193t63 -268q0 -221 -140 -379q-138 -153 -354 -153q-220 0 -367 163v-143h-194zM362 299q51 -72 130.5 -113t169.5 -41q155 0 262 107q108 108 108 260t-108.5 259.5t-261.5 107.5q-90 0 -169.5 -41 t-130.5 -113v-426z" />
<glyph unicode="c" horiz-adv-x="1220" d="M119 512q0 220 160 377q162 155 389 155q127 0 240 -53.5t192 -148.5l-148 -84q-112 121 -274 121q-153 0 -262 -109t-109 -258q0 -153 109 -260t262 -107q173 0 283 131l147 -83q-76 -99 -192 -156t-248 -57q-227 0 -389 155q-160 157 -160 377z" />
<glyph unicode="d" horiz-adv-x="1343" d="M119 512q0 223 139 377q137 155 354 155t367 -163v553h195v-1434h-195v143q-147 -163 -367 -163q-141 0 -254.5 71.5t-176 193t-62.5 267.5zM309 512q0 -151 109.5 -259t259.5 -108q92 0 171 41t130 113v426q-51 72 -130 113t-171 41q-151 0 -260 -109t-109 -258z" />
<glyph unicode="e" horiz-adv-x="1282" d="M119 512v10q0 102 40 196q42 100 113 172q72 72 170 114q94 41 194 40h9q239 0 383 -153q143 -149 143 -379v-55h-866q6 -146 113 -240q110 -96 252 -96q187 0 317 127l105 -92q-182 -176 -437 -176q-226 0 -381 155t-155 377zM307 553h682q0 149 -92 252 q-90 100 -250 100q-138 0 -239 -104q-101 -101 -101 -248z" />
<glyph unicode="f" horiz-adv-x="819" d="M51 874v150h164v76q0 167 99 260.5t257 93.5q96 0 203 -35l-26 -121q-71 23 -121 23q-95 0 -156 -61t-61 -164v-72h321v-150h-321v-874h-195v874h-164z" />
<glyph unicode="g" horiz-adv-x="1374" d="M123 518q0 224 137 373q138 153 350 153q226 0 396 -159v139h194v-934q0 -257 -149 -385q-145 -127 -378 -127h-11q-263 0 -496 148l59 124q190 -121 400 -124q177 0 279 93.5t102 270.5v100q-69 -90 -173 -140t-223 -50q-212 0 -350 147q-137 149 -137 371zM313 518 q0 -149 107 -256q106 -106 258 -106q103 0 190.5 52.5t137.5 141.5v383q-133 148 -328 148q-151 0 -258 -107t-107 -256z" />
<glyph unicode="h" horiz-adv-x="1349" d="M178 0v1434h195v-555q198 165 452 165q170 0 271.5 -98.5t101.5 -277.5v-668h-192v614q0 129 -68 201t-186 72q-218 0 -379 -146v-741h-195z" />
<glyph unicode="i" horiz-adv-x="567" d="M182 1303q0 39 32 66.5t77 27.5q73 0 101 -59q10 -21 10 -40q0 -35 -33 -63q-36 -26 -77.5 -26t-75.5 27t-34 67zM195 0v1024h194v-1024h-194z" />
<glyph unicode="j" horiz-adv-x="571" d="M-117 -393l21 110q35 -12 73 -12q95 0 158.5 66t63.5 174v1079h194v-1092q0 -167 -100 -259.5t-248 -92.5q-85 0 -162 27zM186 1303q0 39 31 65q32 29 77.5 29t76.5 -29q32 -26 32 -65t-32 -68q-31 -26 -76.5 -26t-77.5 26q-31 29 -31 68z" />
<glyph unicode="k" horiz-adv-x="1239" d="M178 0v1434h195v-963l559 553h231l-372 -391l405 -633h-211l-330 494l-282 -269v-225h-195z" />
<glyph unicode="l" horiz-adv-x="528" d="M182 0v1434h195v-1434h-195z" />
<glyph unicode="m" horiz-adv-x="2064" d="M168 0v1024h194v-147q194 167 416 167q106 0 189 -44.5t125 -129.5q204 174 452 174q168 0 268.5 -98.5t100.5 -277.5v-668h-195v614q0 130 -67 201.5t-181 71.5q-197 0 -352 -131q19 -81 19 -158v-598h-193v614q0 129 -67 201t-181 72q-92 0 -169 -30.5t-165 -102.5 v-754h-194z" />
<glyph unicode="n" horiz-adv-x="1339" d="M168 0v1024h194v-145q198 165 453 165q170 0 271.5 -98.5t101.5 -277.5v-668h-193v614q0 129 -68 201t-186 72q-218 0 -379 -146v-741h-194z" />
<glyph unicode="o" horiz-adv-x="1366" d="M119 512q0 221 164 377q165 155 397 155q235 0 397 -155q166 -156 166 -377t-166 -377q-162 -155 -397 -155q-232 0 -397 155q-164 156 -164 377zM307 512q0 -153 110 -260t263 -107q155 0 262 107q109 109 109 260q0 153 -109 260t-262 107q-152 0 -264 -109 q-109 -109 -109 -258z" />
<glyph unicode="p" horiz-adv-x="1361" d="M178 -399v1423h195v-143q150 163 366 163q218 0 355 -155q139 -154 139 -377q0 -222 -139 -379q-138 -153 -355 -153q-219 0 -366 163v-542h-195zM373 299q51 -72 130 -113t169 -41q153 0 261.5 107.5t108.5 259.5t-108.5 259.5t-261.5 107.5q-90 0 -169 -41t-130 -113 v-426z" />
<glyph unicode="q" horiz-adv-x="1343" d="M119 512q0 223 139 377q137 155 354 155t367 -163v143h195v-1423h-195v542q-147 -163 -367 -163q-141 0 -254.5 71.5t-176 193t-62.5 267.5zM309 512q0 -151 109.5 -259t259.5 -108q92 0 171 41t130 113v426q-51 72 -130 113t-171 41q-151 0 -260 -109t-109 -258z" />
<glyph unicode="r" horiz-adv-x="854" d="M168 0v1024h194v-195q202 215 449 215v-157q-254 0 -449 -207v-680h-194z" />
<glyph unicode="s" horiz-adv-x="1081" d="M82 113l70 114q174 -116 401 -116q104 0 168.5 39t64.5 112q0 81 -49 111q-46 29 -190 67q-10 3 -28 8.5t-25 6.5q-199 52 -283 112q-82 58 -82 176q0 149 110 225t283 76q240 0 414 -110l-66 -119q-162 98 -350 98q-95 0 -153 -40t-58 -113q0 -55 45 -84q49 -32 183 -68 q1 -1 3 -1.5t5.5 -1t5.5 -1.5q151 -42 170 -49q31 -9 55.5 -18.5t35.5 -15.5t40 -23q8 -4 14.5 -8t12.5 -9t10.5 -8.5t9.5 -9.5l7.5 -9t8 -10t7 -9.5t7.5 -11.5t7 -11q31 -43 31 -133q0 -143 -112 -221t-300 -78q-275 0 -473 133z" />
<glyph unicode="t" horiz-adv-x="923" d="M51 874v150h174v293h195v-293h311v-150h-311v-507q0 -105 63 -167.5t158 -62.5q75 0 143 39l29 -133q-114 -60 -242 -63q-152 0 -249 96t-97 260v538h-174z" />
<glyph unicode="u" horiz-adv-x="1325" d="M152 356v668h194v-614q0 -129 68 -201t186 -72q218 0 379 146v741h192v-1024h-192v145q-198 -165 -453 -165q-171 0 -272.5 98.5t-101.5 277.5z" />
<glyph unicode="v" horiz-adv-x="1193" d="M43 1024h207l348 -827l346 827h207l-434 -1024h-240z" />
<glyph unicode="w" horiz-adv-x="1687" d="M43 1024h195l266 -817l262 817h158l262 -817l266 817h195l-349 -1024h-211l-241 745l-244 -745h-211z" />
<glyph unicode="x" horiz-adv-x="1136" d="M43 0l412 528l-387 496h223l280 -367l281 367h219l-387 -500l412 -524h-224l-305 395l-305 -395h-219z" />
<glyph unicode="y" horiz-adv-x="1179" d="M43 -371l55 129q82 -32 152 -32h12q76 5 132.5 50t105.5 150l20 41l-463 1057h205l344 -815l330 815h201l-465 -1126q-70 -168 -166 -243t-225 -75h-12q-102 0 -226 49z" />
<glyph unicode="z" horiz-adv-x="1103" d="M86 0v131l619 735h-576v158h844v-131l-619 -735h641v-158h-909z" />
<glyph unicode="{" horiz-adv-x="704" d="M84 563v139h90q41 0 67.5 27t26.5 68v465q0 235 258 235h127v-129h-61q-139 0 -139 -127v-444q0 -114 -86 -164q86 -50 86 -162v-444q0 -129 139 -129h61v-129h-127q-258 0 -258 237v465q0 38 -27 65t-67 27h-90z" />
<glyph unicode="|" horiz-adv-x="628" d="M215 -313v1849h197v-1849h-197z" />
<glyph unicode="}" horiz-adv-x="704" d="M51 -102h62q139 0 139 129v442q0 114 86 164q-86 50 -86 164v442q0 129 -139 129h-62v129h127q258 0 258 -235v-465q0 -41 26.5 -68t67.5 -27h88v-139h-88q-41 0 -67.5 -26.5t-26.5 -67.5v-465q0 -235 -258 -235h-127v129z" />
<glyph unicode="~" horiz-adv-x="1189" d="M88 467q1 145 66.5 229.5t175.5 89.5q58 4 107 -12.5t141 -68.5l28 -17q16 -9 37 -19.5t32.5 -17t18.5 -10.5q63 -29 115 -29q69 -3 119.5 40t72.5 126l101 -14q-6 -138 -75 -222.5t-179 -90.5q-61 -1 -113 17t-143 69l-29 16q-95 50 -121 59q-34 15 -75 15 q-67 2 -113.5 -42.5t-63.5 -129.5z" />
<glyph unicode="&#xa1;" horiz-adv-x="403" d="M90 -412l23 1082h176l22 -1082h-221zM90 946q0 41 32 69.5t79 28.5q45 0 77.5 -28.5t32.5 -69.5q0 -38 -33 -67t-77 -29q-47 0 -79 27.5t-32 68.5z" />
<glyph unicode="&#xa2;" horiz-adv-x="1220" d="M119 512q0 198 133 346q135 150 334 174v234h155v-230q224 -28 359 -194l-148 -84q-112 121 -274 121q-153 0 -262 -109t-109 -258q0 -153 109 -260t262 -107q173 0 283 131l147 -83q-66 -85 -161.5 -138.5t-205.5 -66.5v-230h-155v232q-198 28 -332.5 176t-134.5 346z " />
<glyph unicode="&#xa3;" horiz-adv-x="1353" d="M160 0v168h166v446h-166v142h166v243q0 225 127.5 340t359.5 115q278 0 422 -203l-115 -121q-103 148 -295 148q-139 0 -214.5 -75t-75.5 -226v-221h487v-142h-487v-446h708v-168h-1083z" />
<glyph unicode="&#xa4;" horiz-adv-x="1228" />
<glyph unicode="&#xa5;" horiz-adv-x="1572" d="M76 1434h248l462 -699l465 699h246l-428 -637h268v-142h-354l-94 -139v-115h448v-141h-448v-260h-207v260h-457v141h457v113l-96 141h-361v142h277z" />
<glyph unicode="&#xa6;" horiz-adv-x="628" d="M215 -313v727h197v-727h-197zM215 809v727h197v-727h-197z" />
<glyph unicode="&#xa7;" horiz-adv-x="1282" d="M106 -176l84 137q103 -65 236 -102t262 -37q126 0 203.5 48t77.5 136q0 95 -56 129q-20 15 -28 20.5t-26.5 13t-45.5 15.5q-15 5 -158 45l-57 15q-235 61 -338 129q-98 70 -98 205q0 190 166 278q-90 44 -128 99.5t-38 138.5q0 92 37 162t102 112.5t148.5 64t181.5 21.5 q285 0 495 -131l-79 -141q-95 55 -212 85.5t-223 30.5q-114 0 -184 -47t-70 -135q0 -61 56 -102q55 -35 235 -82l23 -6q9 -3 164 -45l73 -25q97 -41 119 -57q136 -88 133 -254q0 -169 -139 -264q139 -83 139 -252q0 -178 -137 -269q-137 -94 -354 -94q-155 0 -303 41.5 t-261 116.5zM358 600q0 -61 54 -100q52 -35 229 -82q175 -46 195 -53q133 47 133 157q0 74 -41 119q-16 20 -58 35q-33 14 -71 26q-72 22 -101 29l-41 12q-94 23 -137 29q-76 -18 -119 -61.5t-43 -110.5z" />
<glyph unicode="&#xa8;" horiz-adv-x="722" d="M61 1326q0 38 25 63q26 26 64 26t63 -26q25 -25 25 -63t-25 -64q-25 -25 -63 -25t-64 25q-25 26 -25 64zM488 1326q0 34 24 63q30 25 64 25.5t61 -25t27 -64.5q0 -36 -25.5 -62t-63.5 -26q-37 0 -62 27.5t-25 61.5z" />
<glyph unicode="&#xa9;" horiz-adv-x="1712" d="M119 717q0 201 98.5 370.5t267.5 268t369 98.5q151 0 287.5 -58t235 -157t156.5 -235.5t58 -286.5q2 -117 -35 -230t-106.5 -205t-161 -161.5t-204.5 -106.5t-230 -34q-145 -4 -282.5 55t-237.5 159.5t-159.5 238.5t-55.5 284zM246 719q0 -251 178 -432 q181 -178 430 -178q252 0 430 178q180 180 180 432q2 120 -47 233.5t-131.5 197t-196.5 133t-235 46.5q-120 3 -233.5 -46.5t-196.5 -133t-132 -197t-46 -233.5zM463 717q0 158 117 272q118 115 278 115q95 0 178.5 -41.5t139.5 -114.5l-105 -61q-82 104 -211 104 q-115 0 -192 -80q-78 -81 -78 -194q0 -116 78 -197q78 -78 192 -78q128 0 211 105l105 -62q-56 -73 -139 -114t-179 -41q-163 0 -278 112q-117 114 -117 275z" />
<glyph unicode="&#xaa;" horiz-adv-x="821" d="M72 952q0 97 70 150t196 53h256v23q0 80 -49.5 121.5t-138.5 41.5q-124 0 -236 -77l-43 86q146 96 311 96q134 0 211.5 -65t77.5 -191v-445h-133v84q-122 -96 -285 -96q-105 0 -171 60.5t-66 158.5zM205 965q0 -67 44 -108.5t113 -41.5q135 0 232 72v211h-209 q-87 0 -133.5 -34t-46.5 -99z" />
<glyph unicode="&#xab;" horiz-adv-x="1097" d="M84 543l342 420l143 -76l-276 -344l276 -344l-145 -76zM561 543l340 420l146 -76l-277 -344l277 -344l-146 -76z" />
<glyph unicode="&#xac;" horiz-adv-x="1433" />
<glyph unicode="&#xad;" horiz-adv-x="872" d="M84 451v161h704v-161h-704z" />
<glyph unicode="&#xae;" horiz-adv-x="1712" d="M119 717q0 201 98.5 370.5t267.5 268t369 98.5q151 0 287.5 -58t235 -157t156.5 -235.5t58 -286.5q2 -117 -35 -230t-106.5 -205t-161 -161.5t-204.5 -106.5t-230 -34q-145 -4 -282.5 55t-237.5 159.5t-159.5 238.5t-55.5 284zM246 719q0 -251 178 -432 q181 -178 430 -178q252 0 430 178q180 180 180 432q2 120 -47 233.5t-131.5 197t-196.5 133t-235 46.5q-120 3 -233.5 -46.5t-196.5 -133t-132 -197t-46 -233.5zM561 367v712h309q155 0 226 -55t71 -174q0 -170 -157 -211l190 -272h-127l-176 258q-14 -2 -49 -2h-178v-256 h-109zM670 711h204q98 0 139.5 31t41.5 104t-41.5 104t-139.5 31h-204v-270z" />
<glyph unicode="&#xaf;" horiz-adv-x="782" d="M84 1264v125h614v-125h-614z" />
<glyph unicode="&#xb0;" horiz-adv-x="870" d="M84 1219q0 143 103 244.5t249 101.5q143 0 246 -103q104 -101 104 -243q0 -145 -104 -246q-101 -101 -248 -101q-144 0 -248 101q-102 102 -102 246zM201 1219q0 -96 67 -166q71 -68 166 -68q98 0 166 68q70 70 70 166t-70 163q-67 70 -166 70q-96 0 -166 -70 q-67 -67 -67 -163z" />
<glyph unicode="&#xb1;" horiz-adv-x="1021" d="M84 68h854v-152h-854v152zM84 672v151h352v330h150v-330h352v-151h-352v-330h-150v330h-352z" />
<glyph unicode="&#xb2;" horiz-adv-x="641" d="M29 1370q100 158 286 158q103 0 179.5 -61t76.5 -158q0 -56 -31.5 -104t-113.5 -124l-180 -174h340v-108h-549v96l311 272q51 48 68.5 74.5t17.5 58.5q0 50 -36 81.5t-91 31.5q-60 0 -104.5 -27t-85.5 -88z" />
<glyph unicode="&#xb3;" horiz-adv-x="661" d="M29 885l71 78q91 -70 191 -70q75 0 119.5 37t44.5 102q0 51 -39 80t-105 29q-49 0 -116 -23l-23 72l227 217h-323v109h485v-93l-213 -213q37 4 55 2q85 -12 136 -61.5t51 -122.5q0 -109 -79.5 -175.5t-205.5 -66.5q-144 0 -276 99z" />
<glyph unicode="&#xb4;" horiz-adv-x="604" d="M84 1145l229 325h207l-266 -325h-170z" />
<glyph unicode="&#xb6;" horiz-adv-x="1591" d="M127 995q0 202 139.5 320.5t403.5 118.5h702v-1756h-166v1606h-278v-1606h-164v879h-119q-247 0 -382.5 119.5t-135.5 318.5z" />
<glyph unicode="&#xb7;" horiz-adv-x="391" d="M84 614q0 41 33 70t80 29q43 0 76.5 -30t33.5 -69q0 -41 -32.5 -69.5t-77.5 -28.5q-46 0 -79.5 29t-33.5 69z" />
<glyph unicode="&#xb8;" horiz-adv-x="608" d="M84 -397l31 73q60 -32 147 -32q61 0 101 34t40 84q1 47 -29.5 77t-80.5 32q-56 0 -92 -33l-33 27l78 155h100l-59 -118q37 11 84 8q67 -8 110 -54.5t43 -113.5q0 -86 -65 -137t-166 -51q-118 0 -209 49z" />
<glyph unicode="&#xb9;" horiz-adv-x="399" d="M14 1468l187 48h100v-719h-133v600l-133 -29z" />
<glyph unicode="&#xba;" horiz-adv-x="935" d="M90 1090q0 146 111 251t266 105q157 0 268 -105t111 -251q0 -147 -111 -252t-268 -105q-155 0 -266 105t-111 252zM221 1087q0 -100 72 -172q72 -69 174 -69q105 0 174 69q72 72 72 172q0 103 -72 175q-71 71 -174 71q-100 0 -174 -71q-72 -72 -72 -175z" />
<glyph unicode="&#xbb;" horiz-adv-x="1097" d="M51 199l277 344l-277 344l144 76l340 -420l-338 -420zM528 199l275 344l-275 344l144 76l340 -420l-338 -420z" />
<glyph unicode="&#xbc;" horiz-adv-x="1363" d="M27 1386l188 48h98v-719h-133v600l-133 -29zM43 -35l946 1503h160l-946 -1503h-160zM692 274l369 445h141v-440h119v-101h-119v-178h-127v178h-368zM827 279h248v305z" />
<glyph unicode="&#xbd;" horiz-adv-x="1411" d="M27 1386l188 48h98v-719h-133v600l-133 -29zM43 -35l946 1503h160l-946 -1503h-160zM797 571q100 158 286 158q107 0 181.5 -61t74.5 -158q0 -54 -32 -103t-113 -124l-180 -174h340v-109h-549v96l311 273q52 50 69 76.5t17 58.5q0 49 -36 79.5t-91 30.5q-60 0 -104.5 -26 t-85.5 -86z" />
<glyph unicode="&#xbe;" horiz-adv-x="1531" d="M29 803l71 78q91 -70 191 -70q75 0 119.5 37t44.5 102q0 51 -39 80t-105 29q-49 0 -116 -23l-23 72l227 217h-323v109h485v-93l-213 -213q37 4 55 2q85 -12 136 -61.5t51 -122.5q0 -109 -79.5 -175t-205.5 -66q-145 0 -276 98zM211 -35l946 1503h162l-948 -1503h-160z M858 274l369 445h141v-440h119v-101h-119v-178h-127v178h-369zM991 279h250v305z" />
<glyph unicode="&#xbf;" horiz-adv-x="1146" d="M96 -14q0 100 48 177.5t157 170.5l43 41q57 51 72 69q11 11 18.5 21t10 15t8 18.5t8.5 19.5q18 37 18 105v57h176l2 -86q11 -92 -45 -193q-3 -9 -14 -23t-21 -25t-23.5 -26t-16.5 -18l-54 -49q-27 -23 -55 -51q-66 -58 -93.5 -104t-27.5 -107q0 -114 73 -177t195 -63 q123 0 202.5 66.5t92.5 183.5l189 -20q-25 -189 -161 -298.5t-341 -109.5q-208 0 -334.5 108t-126.5 298zM458.5 941q-5.5 30 6 55t39.5 43t63 18q46 0 78.5 -29t32.5 -70t-33.5 -68.5t-75.5 -27t-80 26.5q-25 22 -30.5 52z" />
<glyph unicode="&#xc0;" d="M76 0l622 1434h271l626 -1434h-245l-152 346h-725l-151 -346h-246zM494 1880h206l230 -326h-170zM530 514h611l-305 692z" />
<glyph unicode="&#xc1;" d="M76 0l622 1434h271l626 -1434h-245l-152 346h-725l-151 -346h-246zM530 514h611l-305 692zM737 1554l228 326h209l-267 -326h-170z" />
<glyph unicode="&#xc2;" d="M76 0l622 1434h271l626 -1434h-245l-152 346h-725l-151 -346h-246zM483 1554l250 326h205l248 -326h-164l-186 222l-187 -222h-166zM530 514h611l-305 692z" />
<glyph unicode="&#xc3;" d="M76 0l622 1434h271l626 -1434h-245l-152 346h-725l-151 -346h-246zM483 1630q0 104 44.5 165.5t119.5 66.5q39 4 72.5 -7.5t101.5 -46.5q105 -60 158 -63q99 -9 129 110l82 -10q-1 -101 -51 -163.5t-127 -67.5q-45 -2 -82.5 10t-100.5 47q-20 10 -47.5 24.5t-36 19 t-23 10t-23.5 6.5t-23 0q-42 2 -71.5 -27t-39.5 -82zM530 514h611l-305 692z" />
<glyph unicode="&#xc4;" d="M76 0l622 1434h271l626 -1434h-245l-152 346h-725l-151 -346h-246zM530 514h611l-305 692zM534.5 1735.5q0.5 33.5 24.5 62.5q29 26 63 26.5t61.5 -25.5t27.5 -64q0 -36 -25 -62t-63 -26t-63.5 27.5t-25 61zM960.5 1735.5q0.5 33.5 24.5 62.5q29 26 63 26.5t61.5 -25.5 t27.5 -64q0 -36 -25 -62t-63 -26t-63.5 27.5t-25 61z" />
<glyph unicode="&#xc5;" d="M76 0l622 1434h271l626 -1434h-245l-152 346h-725l-151 -346h-246zM530 514h611l-305 692zM584 1731q0 104 73 174q74 71 179 71t176 -71q73 -70 73 -174q0 -105 -73 -175q-71 -71 -176 -71t-179 71q-73 70 -73 175zM684 1730q0 -62 43 -106q44 -43 107.5 -43t107.5 43 q44 44 44 106t-44 105q-44 44 -107.5 44t-107.5 -44q-43 -43 -43 -105z" />
<glyph unicode="&#xc6;" horiz-adv-x="2050" d="M76 0l622 1434h1227v-187h-883v-434h816v-176h-816v-451h902v-186h-1108v346h-363l-151 -346h-246zM530 514h306v692z" />
<glyph unicode="&#xc7;" horiz-adv-x="1605" d="M156 717q-3 146 58 284t163 238t242 159t288 56q176 0 330 -75t260 -208l-176 -104q-159 193 -412 193q-226 0 -383 -160q-155 -155 -155 -383q0 -227 155 -385q158 -158 383 -158q253 0 412 193l176 -105q-106 -132 -260 -207t-330 -75q-49 0 -96 6l-43 -84q37 11 84 8 q68 -8 112 -54.5t44 -113.5q0 -87 -67 -137.5t-165 -50.5q-121 0 -209 49l29 73q60 -32 147 -32q62 0 102 34t42 84q0 47 -31.5 77t-79.5 32q-55 0 -94 -33l-31 27l68 137q-249 65 -406 262q-157 201 -157 453z" />
<glyph unicode="&#xc8;" horiz-adv-x="1431" d="M215 0v1434h1090v-187h-883v-434h815v-176h-815v-451h901v-186h-1108zM440 1880h209l230 -326h-170z" />
<glyph unicode="&#xc9;" horiz-adv-x="1431" d="M215 0v1434h1090v-187h-883v-434h815v-176h-815v-451h901v-186h-1108zM684 1554l229 326h207l-266 -326h-170z" />
<glyph unicode="&#xca;" horiz-adv-x="1431" d="M215 0v1434h1090v-187h-883v-434h815v-176h-815v-451h901v-186h-1108zM432 1554l248 326h205l250 -326h-164l-189 222l-186 -222h-164z" />
<glyph unicode="&#xcb;" horiz-adv-x="1431" d="M215 0v1434h1090v-187h-883v-434h815v-176h-815v-451h901v-186h-1108zM482 1735.5q0 33.5 24 62.5q31 26 64.5 26.5t60 -25.5t26.5 -64q0 -36 -25 -62t-63 -26q-37 0 -62 27.5t-25 61zM908 1735.5q0 33.5 24 62.5q31 26 64.5 26.5t60 -25.5t26.5 -64q0 -36 -25 -62 t-63 -26q-37 0 -62 27.5t-25 61z" />
<glyph unicode="&#xcc;" horiz-adv-x="638" d="M-14 1880h207l229 -326h-170zM217 0v1434h207v-1434h-207z" />
<glyph unicode="&#xcd;" horiz-adv-x="638" d="M215 0v1434h207v-1434h-207zM225 1554l230 326h207l-267 -326h-170z" />
<glyph unicode="&#xce;" horiz-adv-x="638" d="M-25 1554l248 326h207l248 -326h-164l-188 222l-187 -222h-164zM217 0v1434h207v-1434h-207z" />
<glyph unicode="&#xcf;" horiz-adv-x="638" d="M25 1735q0 38 26.5 64t59.5 26t63 -27q26 -29 26.5 -62.5t-25.5 -61t-64 -27.5q-36 0 -61 26t-25 62zM215 0v1434h207v-1434h-207zM448 1735q0 38 25 63q26 26 64 26t63 -26q25 -25 25 -63t-25 -64q-25 -25 -63 -25t-64 25q-25 26 -25 64z" />
<glyph unicode="&#xd0;" horiz-adv-x="1703" d="M66 635v164h157v635h565q152 3 293 -53t244 -152.5t163.5 -231.5t57.5 -282q3 -146 -57.5 -280t-163.5 -230t-244 -152t-293 -53h-565v635h-157zM430 186h352q226 0 392 152q161 151 161 379q0 229 -161 377q-163 153 -392 153h-352v-448h348v-164h-348v-449z" />
<glyph unicode="&#xd1;" horiz-adv-x="1675" d="M199 0v1434h221l850 -1104v1104h203v-1434h-222l-850 1104v-1104h-202zM504 1630q-1 103 43.5 165t118.5 67q40 4 73 -7t101 -47q105 -60 159 -63q99 -9 129 110l80 -10q-1 -102 -50 -164t-128 -67q-47 -3 -80.5 9t-99.5 48q-17 9 -41 21.5t-32.5 16.5t-22.5 10.5t-21 8 t-16.5 3t-20.5 0.5q-42 2 -71 -26.5t-39 -82.5z" />
<glyph unicode="&#xd2;" horiz-adv-x="1828" d="M156 717q0 200 102 370t276 268.5t379 98.5q155 0 296 -58t242 -157t160.5 -235.5t59.5 -286.5q3 -147 -57.5 -284.5t-163.5 -238t-244.5 -159.5t-292.5 -55q-150 -4 -291.5 55t-244.5 159.5t-164 238.5t-57 284zM371 717q0 -225 157 -385q158 -158 385 -158t385 158 q158 161 158 385q3 144 -69 270.5t-199 201t-275 71.5q-228 0 -385 -160q-157 -157 -157 -383zM573 1880h207l230 -326h-170z" />
<glyph unicode="&#xd3;" horiz-adv-x="1828" d="M156 717q0 200 102 370t276 268.5t379 98.5q155 0 296 -58t242 -157t160.5 -235.5t59.5 -286.5q3 -147 -57.5 -284.5t-163.5 -238t-244.5 -159.5t-292.5 -55q-150 -4 -291.5 55t-244.5 159.5t-164 238.5t-57 284zM371 717q0 -225 157 -385q158 -158 385 -158t385 158 q158 161 158 385q0 225 -158 383q-157 160 -385 160t-385 -160q-157 -157 -157 -383zM815 1554l229 326h207l-266 -326h-170z" />
<glyph unicode="&#xd4;" horiz-adv-x="1828" d="M156 717q0 200 101 370t275 269q174 98 381 98q206 0 381 -98t275 -269q102 -169 102 -370q0 -200 -101.5 -370t-275.5 -269q-174 -98 -381 -98t-381 98t-276 268q-100 166 -100 371zM373 717q0 -227 155 -385q158 -158 385 -158t385 158q158 161 158 385q0 225 -158 383 q-157 160 -385 160t-385 -160q-155 -155 -155 -383zM563 1554l248 326h207l248 -326h-164l-189 222l-186 -222h-164z" />
<glyph unicode="&#xd5;" horiz-adv-x="1828" d="M156 717q0 200 102 370t276 268.5t379 98.5q155 0 296 -58t242 -157t160.5 -235.5t59.5 -286.5q3 -147 -57.5 -284.5t-163.5 -238t-244.5 -159.5t-292.5 -55q-150 -4 -291.5 55t-244.5 159.5t-164 238.5t-57 284zM371 717q0 -225 157 -385q158 -158 385 -158t385 158 q158 161 158 385q3 144 -69 270.5t-199 201t-275 71.5q-228 0 -385 -160q-157 -157 -157 -383zM563 1630q0 104 44.5 165.5t119.5 66.5q38 4 71 -7t101 -47q105 -60 160 -63q99 -9 129 110l80 -10q-1 -102 -50 -164t-128 -67q-43 -2 -81.5 10t-99.5 47q-18 9 -41 21.5 t-32 17t-22.5 10.5t-20.5 7.5t-16.5 3t-20.5 0.5q-42 2 -71.5 -27t-39.5 -82z" />
<glyph unicode="&#xd6;" horiz-adv-x="1828" d="M156 717q0 200 101 370t275 269q174 98 381 98q206 0 381 -98t275 -269q102 -169 102 -370q0 -200 -101.5 -370t-275.5 -269q-174 -98 -381 -98t-381 98t-276 268q-100 166 -100 371zM371 717q0 -225 157 -385q158 -158 385 -158t385 158q158 161 158 385q0 225 -158 383 q-157 160 -385 160t-385 -160q-157 -157 -157 -383zM612 1735q0 38 25 63q26 26 64 26t63 -26q25 -25 25 -63t-25 -64q-25 -25 -63 -25t-64 25q-25 26 -25 64zM1045.5 1769.5q22.5 55.5 80.5 55.5q38 0 63 -26t25 -64q0 -57 -53.5 -80t-97.5 16q-40 43 -17.5 98.5z" />
<glyph unicode="&#xd7;" horiz-adv-x="878" d="M84 309l248 248l-248 248l109 106l247 -247l248 247l107 -106l-248 -248l248 -248l-107 -106l-248 248l-247 -248z" />
<glyph unicode="&#xd8;" horiz-adv-x="1828" d="M156 717q-2 98 24.5 193.5t76.5 177t121 150.5t155 117t182 74.5t198 24.5q130 0 246 -39l58 121h176l-90 -186q171 -99 269.5 -267.5t98.5 -365.5q3 -147 -57.5 -284.5t-163.5 -238t-244.5 -159.5t-292.5 -55q-130 0 -243 38l-58 -120h-176l88 186q-169 99 -268.5 268 t-99.5 365zM371 717q0 -139 64 -259t175 -194l463 973q-84 23 -160 23q-228 0 -385 -160q-157 -157 -157 -383zM754 197q84 -23 159 -23q227 0 385 158q158 161 158 385q0 138 -64 258t-175 194z" />
<glyph unicode="&#xd9;" horiz-adv-x="1681" d="M215 641v793h207v-793q0 -226 113 -348.5t311 -122.5q199 0 312.5 122.5t113.5 348.5v793h207v-793q0 -317 -168 -489t-465 -172q-294 0 -462.5 172t-168.5 489zM500 1880h207l229 -326h-170z" />
<glyph unicode="&#xda;" horiz-adv-x="1681" d="M215 641v793h207v-793q0 -226 113 -348.5t311 -122.5q199 0 312.5 122.5t113.5 348.5v793h207v-793q0 -317 -168 -489t-465 -172q-294 0 -462.5 172t-168.5 489zM743 1554l228 326h209l-269 -326h-168z" />
<glyph unicode="&#xdb;" horiz-adv-x="1681" d="M215 641v793h207v-793q0 -226 113 -348.5t311 -122.5q199 0 312.5 122.5t113.5 348.5v793h207v-793q0 -317 -168 -489t-465 -172q-294 0 -462.5 172t-168.5 489zM489 1554l248 326h207l248 -326h-164l-186 222l-189 -222h-164z" />
<glyph unicode="&#xdc;" horiz-adv-x="1681" d="M215 641v793h207v-793q0 -226 113 -348.5t311 -122.5q199 0 312.5 122.5t113.5 348.5v793h207v-793q0 -317 -168 -489t-465 -172q-294 0 -462.5 172t-168.5 489zM540 1735q0 38 25 63q25 26 62.5 26t62.5 -26q26 -25 26 -63t-26 -64q-25 -25 -62.5 -25t-62.5 25 q-25 26 -25 64zM965 1736q0 34 25.5 61.5t64.5 27.5q36 0 62 -26t26 -64q0 -58 -55.5 -81t-98.5 17q-24 31 -24 65z" />
<glyph unicode="&#xdd;" horiz-adv-x="1572" d="M76 1434h248l462 -699l465 699h246l-606 -918l-2 -516h-207v514zM688 1554l227 326h209l-266 -326h-170z" />
<glyph unicode="&#xde;" horiz-adv-x="1529" d="M215 0v1434h207v-199h379q311 0 455.5 -118t144.5 -369q0 -248 -146 -365t-450 -117h-383v-266h-207zM422 428h375q201 0 295 75t94 236q0 165 -94 241.5t-297 76.5h-373v-629z" />
<glyph unicode="&#xdf;" horiz-adv-x="1398" d="M193 0v958q0 244 127.5 370t373.5 126q218 0 359 -102t141 -262q0 -114 -63.5 -196t-178.5 -124q158 -37 248 -136.5t90 -244.5q0 -184 -151 -299q-149 -110 -398 -110q-109 0 -188 32l22 154q81 -32 170 -29q154 4 247 80t93 195q0 127 -92.5 200.5t-251.5 73.5h-172 v139h131q135 0 217 63.5t82 174.5q0 100 -85 166.5t-214 66.5q-146 0 -223.5 -75.5t-77.5 -216.5v-1004h-206z" />
<glyph unicode="&#xe0;" horiz-adv-x="1234" d="M106 307q0 145 104 223t290 78h387v37q0 122 -75 185t-208 63q-188 0 -354 -117l-60 125q213 140 463 143q201 0 314.5 -96t113.5 -286v-662h-194v129q-174 -149 -428 -149q-156 0 -254.5 90t-98.5 237zM297 326q0 -102 67.5 -165t176.5 -63q204 0 346 109v321h-316 q-132 0 -203 -51.5t-71 -150.5zM303 1470h207l229 -325h-170z" />
<glyph unicode="&#xe1;" horiz-adv-x="1234" d="M106 307q0 145 104 223t290 78h387v37q0 122 -75 185t-208 63q-188 0 -354 -117l-60 125q213 140 463 143q201 0 314.5 -96t113.5 -286v-662h-194v129q-174 -149 -428 -149q-156 0 -254.5 90t-98.5 237zM297 326q0 -102 67.5 -165t176.5 -63q204 0 346 109v321h-316 q-132 0 -203 -51.5t-71 -150.5zM547 1145l227 325h209l-266 -325h-170z" />
<glyph unicode="&#xe2;" horiz-adv-x="1234" d="M106 307q0 145 104 223t290 78h387v37q0 122 -75 185t-208 63q-188 0 -354 -117l-60 125q213 140 463 143q201 0 314.5 -96t113.5 -286v-662h-194v129q-174 -149 -428 -149q-156 0 -254.5 90t-98.5 237zM293 1145l250 325h205l247 -325h-164l-186 221l-186 -221h-166z M297 326q0 -102 67.5 -165t176.5 -63q204 0 346 109v321h-316q-132 0 -203 -51.5t-71 -150.5z" />
<glyph unicode="&#xe3;" horiz-adv-x="1234" d="M106 307q0 145 104 223t290 78h387v37q0 122 -75 185t-208 63q-188 0 -354 -117l-60 125q213 140 463 143q201 0 314.5 -96t113.5 -286v-662h-194v129q-174 -149 -428 -149q-156 0 -254.5 90t-98.5 237zM293 1221q0 103 45 164.5t119 66.5q40 4 73.5 -7t100.5 -46 q107 -61 157 -64q103 -9 130 111l81 -10q-1 -102 -50 -164.5t-128 -67.5q-44 -1 -81.5 10.5t-100.5 47.5q-63 39 -91.5 49t-62.5 10q-85 3 -110 -109zM297 326q0 -102 67.5 -165t176.5 -63q204 0 346 109v321h-316q-132 0 -203 -51.5t-71 -150.5z" />
<glyph unicode="&#xe4;" horiz-adv-x="1234" d="M106 307q0 145 104 223t290 78h387v37q0 122 -75 185t-208 63q-188 0 -354 -117l-60 125q213 140 463 143q201 0 314.5 -96t113.5 -286v-662h-194v129q-174 -149 -428 -149q-156 0 -254.5 90t-98.5 237zM297 326q0 -102 67.5 -165t176.5 -63q204 0 346 109v321h-316 q-132 0 -203 -51.5t-71 -150.5zM344 1326q0 38 25 63q25 26 62.5 26t62.5 -26q26 -25 26 -63t-26 -64q-25 -25 -62.5 -25t-62.5 25q-25 26 -25 64zM770 1326q0 38 25 63q25 26 62.5 26t62.5 -26q26 -25 26 -63t-26 -64q-25 -25 -62.5 -25t-62.5 25q-25 26 -25 64z" />
<glyph unicode="&#xe5;" horiz-adv-x="1234" d="M106 307q0 145 104 223t290 78h387v37q0 122 -75 185t-208 63q-188 0 -354 -117l-60 125q213 140 463 143q201 0 314.5 -96t113.5 -286v-662h-194v129q-174 -149 -428 -149q-156 0 -254.5 90t-98.5 237zM297 326q0 -102 67.5 -165t176.5 -63q204 0 346 109v321h-316 q-132 0 -203 -51.5t-71 -150.5zM393 1321q0 103 74 174.5t178 71.5q103 0 178 -72q74 -71 74 -174t-74 -174q-75 -72 -178 -72t-178 72q-74 71 -74 174zM496.5 1291q6.5 -46 40.5 -77q31 -34 77.5 -40.5t87 10.5t69 54t26.5 83q0 61 -45 105t-107 44q-47 2 -84.5 -25.5 t-54 -67.5t-10 -86z" />
<glyph unicode="&#xe6;" horiz-adv-x="2119" d="M106 307q0 145 104 223t290 78h387v37q0 122 -75 185t-208 63q-188 0 -354 -117l-60 125q213 140 463 143q151 0 255 -55.5t147 -165.5q72 103 185 162t241 59q242 0 383 -153q143 -149 143 -379v-55h-864q6 -146 110 -240q110 -96 254 -96q185 0 318 127l102 -92 q-182 -176 -436 -176q-120 0 -227 49.5t-183 138.5v-168h-194v129q-174 -149 -428 -149q-156 0 -254.5 90t-98.5 237zM297 326q0 -102 67.5 -165t176.5 -63q204 0 346 109v321h-316q-132 0 -203 -51.5t-71 -150.5zM1143 553h684q0 151 -94 252q-90 100 -248 100 q-141 0 -242 -104q-100 -100 -100 -248z" />
<glyph unicode="&#xe7;" horiz-adv-x="1220" d="M119 512q0 220 160 377q162 155 389 155q127 0 240 -53.5t192 -148.5l-148 -84q-112 121 -274 121q-153 0 -262 -109t-109 -258q0 -153 109 -260t262 -107q173 0 283 131l147 -83q-76 -99 -192 -156t-248 -57q-31 0 -47 2l-39 -80q37 11 82 8q68 -8 111.5 -54.5 t43.5 -113.5q0 -86 -65 -137t-166 -51q-118 0 -209 49l31 73q57 -32 145 -32q62 0 102.5 34t40.5 84q0 47 -30.5 77.5t-79.5 31.5q-55 0 -94 -33l-31 27l65 133q-178 43 -293.5 187.5t-115.5 326.5z" />
<glyph unicode="&#xe8;" horiz-adv-x="1282" d="M119 512q-2 106 40 205.5t113.5 171.5t169.5 114.5t203 40.5q239 0 383 -153q143 -149 143 -379v-55h-866q6 -146 113 -240q110 -96 252 -96q187 0 317 127l105 -92q-182 -176 -437 -176q-226 0 -381 155t-155 377zM301 1470h207l229 -325h-170zM307 553h682 q0 149 -92 252q-90 100 -250 100q-138 0 -239 -104q-101 -101 -101 -248z" />
<glyph unicode="&#xe9;" horiz-adv-x="1282" d="M119 512q-2 106 40 205.5t113.5 171.5t169.5 114.5t203 40.5q239 0 383 -153q143 -149 143 -379v-55h-866q6 -146 113 -240q110 -96 252 -96q187 0 317 127l105 -92q-182 -176 -437 -176q-226 0 -381 155t-155 377zM307 553h682q0 149 -92 252q-90 100 -250 100 q-138 0 -239 -104q-101 -101 -101 -248zM543 1145l229 325h207l-266 -325h-170z" />
<glyph unicode="&#xea;" horiz-adv-x="1282" d="M119 512q-2 106 40 205.5t113.5 171.5t169.5 114.5t203 40.5q239 0 383 -153q143 -149 143 -379v-55h-866q6 -146 113 -240q110 -96 252 -96q187 0 317 127l105 -92q-182 -176 -437 -176q-226 0 -381 155t-155 377zM291 1145l248 325h206l248 -325h-164l-188 221 l-186 -221h-164zM307 553h682q0 149 -92 252q-90 100 -250 100q-138 0 -239 -104q-101 -101 -101 -248z" />
<glyph unicode="&#xeb;" horiz-adv-x="1282" d="M119 512q-2 106 40 205.5t113.5 171.5t169.5 114.5t203 40.5q239 0 383 -153q143 -149 143 -379v-55h-866q6 -146 113 -240q110 -96 252 -96q187 0 317 127l105 -92q-182 -176 -437 -176q-226 0 -381 155t-155 377zM307 553h682q0 149 -92 252q-90 100 -250 100 q-138 0 -239 -104q-101 -101 -101 -248zM340 1326q0 38 25 63q26 26 64 26t63 -26q26 -25 26 -63t-26 -64q-25 -25 -63 -25t-64 25q-25 26 -25 64zM767 1326q0 34 24 63q31 26 64.5 26t60 -26t26.5 -64q0 -36 -24.5 -62t-63.5 -26q-37 0 -62 27.5t-25 61.5z" />
<glyph unicode="&#xec;" horiz-adv-x="561" d="M-51 1470h207l229 -325h-170zM193 0v1024h192v-1024h-192z" />
<glyph unicode="&#xed;" horiz-adv-x="561" d="M190 0v1024h193v-1024h-193zM190 1145l228 325h209l-269 -325h-168z" />
<glyph unicode="&#xee;" horiz-adv-x="561" d="M-59 1145l247 325h207l248 -325h-164l-186 221l-189 -221h-163zM195 0v1024h192v-1024h-192z" />
<glyph unicode="&#xef;" horiz-adv-x="561" d="M-11 1326q0 38 25 63q25 26 62.5 26t62.5 -26q26 -25 26 -63t-26 -64q-25 -25 -62.5 -25t-62.5 25q-25 26 -25 64zM193 0v1024h192v-1024h-192zM415 1326q0 38 25 63q25 26 62.5 26t62.5 -26q26 -25 26 -63t-26 -64q-25 -25 -62.5 -25t-62.5 25q-25 26 -25 64z" />
<glyph unicode="&#xf0;" horiz-adv-x="1333" d="M92 492q0 200 127 333t338 133q130 0 237.5 -50t170.5 -138v18q-3 268 -109 426l-223 -137l-68 105l207 125q-111 85 -262 82q-137 0 -256 -64l-57 135q157 80 338 80q243 3 399 -135l196 121l68 -105l-180 -108q162 -223 162 -621q0 -209 -66 -379q-57 -152 -181 -242.5 t-325 -90.5q-231 0 -375 147q-141 150 -141 365zM287 471q0 -148 90 -244q92 -92 231 -92q333 0 359 434q-35 110 -132 175t-227 65q-140 0 -231 -94q-90 -93 -90 -244z" />
<glyph unicode="&#xf1;" horiz-adv-x="1339" d="M168 0v1024h194v-145q198 165 453 165q170 0 271.5 -98.5t101.5 -277.5v-668h-193v614q0 130 -69 201.5t-185 71.5q-218 0 -379 -146v-741h-194zM319 1221q0 104 44 165t120 66q39 4 73 -7t99 -46q107 -61 160 -64q99 -9 129 111l82 -10q-4 -103 -53 -165t-127 -67 q-47 -3 -80 9t-100 49l-27 14q-60 31 -80.5 38t-46.5 7q-42 2 -71.5 -27t-39.5 -82z" />
<glyph unicode="&#xf2;" horiz-adv-x="1366" d="M119 512q0 221 164 377q165 155 397 155q235 0 397 -155q166 -156 166 -377t-166 -377q-162 -155 -397 -155q-232 0 -397 155q-164 156 -164 377zM307 512q0 -153 110 -260t263 -107q155 0 262 107q109 109 109 260q0 153 -109 260t-262 107q-152 0 -264 -109 q-109 -109 -109 -258zM340 1470h207l229 -325h-170z" />
<glyph unicode="&#xf3;" horiz-adv-x="1366" d="M119 512q0 221 164 377q165 155 397 155q235 0 397 -155q166 -156 166 -377t-166 -377q-162 -155 -397 -155q-232 0 -397 155q-164 156 -164 377zM307 512q0 -153 110 -260t263 -107q155 0 262 107q109 109 109 260q0 153 -109 260t-262 107q-152 0 -264 -109 q-109 -109 -109 -258zM582 1145l229 325h207l-266 -325h-170z" />
<glyph unicode="&#xf4;" horiz-adv-x="1366" d="M119 512q0 221 164 377q165 155 397 155q235 0 397 -155q166 -156 166 -377t-166 -377q-162 -155 -397 -155q-232 0 -397 155q-164 156 -164 377zM307 512q0 -153 110 -260t263 -107q155 0 262 107q109 109 109 260q0 153 -109 260t-262 107q-152 0 -264 -109 q-109 -109 -109 -258zM330 1145l248 325h206l248 -325h-164l-188 221l-186 -221h-164z" />
<glyph unicode="&#xf5;" horiz-adv-x="1366" d="M119 512q0 221 164 377q165 155 397 155q235 0 397 -155q166 -156 166 -377t-166 -377q-162 -155 -397 -155q-232 0 -397 155q-164 156 -164 377zM307 512q0 -151 109 -260q110 -107 264 -107q155 0 262 107q109 109 109 260q0 149 -109 258t-262 109q-152 0 -264 -109 q-109 -109 -109 -258zM330 1221q0 104 44 165t120 66q39 4 73 -7t99 -46q107 -61 159 -64q99 -9 129 111l82 -10q-1 -102 -51 -164.5t-129 -67.5q-43 -2 -81 10.5t-99 47.5q-10 5 -26 13.5t-22 11.5t-18.5 9.5t-16 8t-13.5 6t-12 4.5t-11.5 3.5t-11 2t-11 0.5t-12.5 0 q-42 2 -71 -26.5t-39 -82.5z" />
<glyph unicode="&#xf6;" horiz-adv-x="1366" d="M119 512q0 221 164 377q165 155 397 155q235 0 397 -155q166 -156 166 -377t-166 -377q-162 -155 -397 -155q-232 0 -397 155q-164 156 -164 377zM307 512q0 -153 110 -260t263 -107q155 0 262 107q109 109 109 260q0 153 -109 260t-262 107q-152 0 -264 -109 q-109 -109 -109 -258zM378 1326q0 38 25 63q26 26 64 26t63 -26q26 -25 26 -63t-26 -64q-25 -25 -63 -25t-64 25q-25 26 -25 64zM805 1326q0 34 24 63q31 26 65 26.5t61.5 -25.5t27.5 -65q0 -36 -26 -62t-64 -26q-37 0 -62.5 27.5t-25.5 61.5z" />
<glyph unicode="&#xf7;" horiz-adv-x="1169" d="M84 520v152h1001v-152h-1001zM473 1016q0 41 34 69t76.5 27.5t80.5 -27.5q26 -22 31 -51.5t-7.5 -54t-40 -42t-61.5 -17.5q-46 0 -79.5 27.5t-33.5 68.5zM474.5 192.5q5.5 29.5 31.5 51.5q38 27 80.5 27t76 -28t33.5 -69q0 -40 -33 -68t-77 -28q-35 0 -63.5 17.5 t-41 42.5t-7 54.5z" />
<glyph unicode="&#xf8;" horiz-adv-x="1366" d="M119 512q0 221 164 377q165 155 397 155q96 0 178 -26l51 108h129l-73 -153q129 -73 203.5 -194.5t74.5 -266.5q0 -221 -166 -377q-162 -155 -397 -155q-94 0 -176 26l-51 -108h-129l73 153q-129 73 -203.5 194.5t-74.5 266.5zM307 512q0 -93 44 -173t120 -130l313 655 q-52 15 -104 15q-152 0 -264 -109q-109 -109 -109 -258zM578 158q54 -13 102 -13q155 0 262 107q109 109 109 260q0 91 -43 171t-117 132z" />
<glyph unicode="&#xf9;" horiz-adv-x="1325" d="M152 356v668h194v-614q0 -129 68 -201t186 -72q218 0 379 146v741h192v-1024h-192v145q-198 -165 -453 -165q-171 0 -272.5 98.5t-101.5 277.5zM324 1470h206l230 -325h-170z" />
<glyph unicode="&#xfa;" horiz-adv-x="1325" d="M152 356v668h194v-614q0 -129 68 -201t186 -72q218 0 379 146v741h192v-1024h-192v145q-198 -165 -453 -165q-171 0 -272.5 98.5t-101.5 277.5zM565 1145l230 325h206l-266 -325h-170z" />
<glyph unicode="&#xfb;" horiz-adv-x="1325" d="M152 356v668h194v-614q0 -129 68 -201t186 -72q218 0 379 146v741h192v-1024h-192v145q-198 -165 -453 -165q-171 0 -272.5 98.5t-101.5 277.5zM313 1145l248 325h207l248 -325h-164l-188 221l-187 -221h-164z" />
<glyph unicode="&#xfc;" horiz-adv-x="1325" d="M152 356v668h194v-614q0 -130 68.5 -201.5t185.5 -71.5q218 0 379 146v741h192v-1024h-192v145q-198 -165 -453 -165q-171 0 -272.5 98.5t-101.5 277.5zM362 1326q0 38 25 63q26 26 64 26t63 -26q25 -25 25 -63t-25 -64q-25 -25 -63 -25t-64 25q-25 26 -25 64zM788 1326 q0 38 25 63q26 26 64 26t63 -26q25 -25 25 -63t-25 -64q-25 -25 -63 -25t-64 25q-25 26 -25 64z" />
<glyph unicode="&#xfd;" horiz-adv-x="1179" d="M43 -371l55 129q89 -35 164 -32q76 5 132.5 50t105.5 150l20 41l-463 1057h205l344 -815l330 815h201l-465 -1126q-70 -168 -166 -243t-225 -75q-107 -3 -238 49zM504 1145l229 325h207l-266 -325h-170z" />
<glyph unicode="&#xfe;" horiz-adv-x="1361" d="M178 -399v1833h195v-553q150 163 366 163q141 0 254.5 -71t176.5 -193t63 -268q0 -222 -139 -379q-138 -153 -355 -153q-219 0 -366 163v-542h-195zM373 299q51 -72 130 -113t169 -41q155 0 262 107q108 108 108 260q0 150 -108 258q-109 109 -262 109q-90 0 -169 -41 t-130 -113v-426z" />
<glyph unicode="&#xff;" horiz-adv-x="1179" d="M43 -371l55 129q89 -35 164 -32q76 5 132.5 50t105.5 150l20 41l-463 1057h205l344 -815l330 815h201l-465 -1126q-70 -168 -166 -243t-225 -75q-107 -3 -238 49zM301 1326q0 38 25 63q26 26 64 26t63 -26q25 -25 25 -63t-25 -64q-25 -25 -63 -25t-64 25q-25 26 -25 64z M727 1326q0 38 25 63q25 26 62.5 26t62.5 -26q26 -25 26 -63t-26 -64q-25 -25 -62.5 -25t-62.5 25q-25 26 -25 64z" />
<glyph unicode="&#x152;" horiz-adv-x="2676" d="M156 717q-2 98 24.5 193.5t76.5 177t121 150.5t155 117t182 74.5t198 24.5q157 0 299.5 -60t249.5 -167v207h1090v-187h-883v-434h817v-176h-817v-451h901v-186h-1108v207q-107 -107 -249.5 -167t-299.5 -60q-205 0 -379 98.5t-276 268.5t-102 370zM373 717 q0 -227 155 -385q158 -158 385 -158t385 158q158 161 158 385q0 225 -158 383q-157 160 -385 160t-385 -160q-155 -155 -155 -383z" />
<glyph unicode="&#x153;" horiz-adv-x="2224" d="M119 512q0 145 75.5 267.5t204.5 193.5t281 71q142 0 266.5 -63t202.5 -172q73 110 188 172.5t248 62.5q242 0 383 -153q143 -149 143 -379v-55h-864q6 -146 111 -240q110 -96 254 -96q184 0 317 127l103 -92q-182 -176 -437 -176q-136 0 -254 63t-192 174 q-79 -111 -201.5 -174t-267.5 -63q-232 0 -397 155q-164 156 -164 377zM307 512q0 -151 109 -260q110 -107 264 -107q155 0 262 107q109 109 109 260q0 149 -109 258t-262 109q-152 0 -264 -109q-109 -109 -109 -258zM1247 553h684q0 151 -93.5 251.5t-248.5 100.5 q-140 0 -241 -104q-101 -101 -101 -248z" />
<glyph unicode="&#x178;" horiz-adv-x="1572" d="M76 1434h248l462 -699l465 699h246l-608 -918v-516h-207v514zM485 1735q0 38 25 63q25 26 62.5 26t62.5 -26q26 -25 26 -63t-26 -64q-25 -25 -62.5 -25t-62.5 25q-25 26 -25 64zM918 1769.5q22 55.5 81 55.5q38 0 63 -26t25 -64q0 -37 -27.5 -62.5t-61 -25.5t-62.5 24 q-40 43 -18 98.5z" />
<glyph unicode="&#x2c6;" horiz-adv-x="825" d="M61 1145l248 325h207l248 -325h-164l-186 221l-189 -221h-164z" />
<glyph unicode="&#x2dc;" horiz-adv-x="880" d="M86 1221q0 104 44 165t120 66q39 4 73 -7t99 -46q107 -61 160 -64q99 -9 129 111l82 -10q-1 -101 -51.5 -164t-129.5 -68q-43 -2 -81 10.5t-99 47.5q-17 9 -40.5 21.5t-32.5 16.5t-22 10t-20 7.5t-17 3t-21 0.5q-42 2 -71.5 -27t-39.5 -82z" />
<glyph unicode="&#x2000;" horiz-adv-x="988" />
<glyph unicode="&#x2001;" horiz-adv-x="1976" />
<glyph unicode="&#x2002;" horiz-adv-x="988" />
<glyph unicode="&#x2003;" horiz-adv-x="1976" />
<glyph unicode="&#x2004;" horiz-adv-x="658" />
<glyph unicode="&#x2005;" horiz-adv-x="494" />
<glyph unicode="&#x2006;" horiz-adv-x="329" />
<glyph unicode="&#x2007;" horiz-adv-x="329" />
<glyph unicode="&#x2008;" horiz-adv-x="247" />
<glyph unicode="&#x2009;" horiz-adv-x="395" />
<glyph unicode="&#x200a;" horiz-adv-x="109" />
<glyph unicode="&#x2010;" horiz-adv-x="872" d="M84 451v161h704v-161h-704z" />
<glyph unicode="&#x2011;" horiz-adv-x="872" d="M84 451v161h704v-161h-704z" />
<glyph unicode="&#x2012;" horiz-adv-x="872" d="M84 451v161h704v-161h-704z" />
<glyph unicode="&#x2013;" horiz-adv-x="1091" d="M84 451v161h924v-161h-924z" />
<glyph unicode="&#x2014;" horiz-adv-x="1437" d="M84 467v131h1270v-131h-1270z" />
<glyph unicode="&#x2018;" horiz-adv-x="407" d="M84 1253q0 31 18 52l193 292l61 -26l-110 -230q61 -27 61 -88q0 -41 -32.5 -69.5t-79.5 -28.5q-45 0 -78 28.5t-33 69.5z" />
<glyph unicode="&#x2019;" horiz-adv-x="407" d="M51 1184l111 229q-62 27 -62 86q-5 60 53 85t116 0t53 -85q0 -24 -17 -51l-192 -293z" />
<glyph unicode="&#x201a;" horiz-adv-x="407" d="M51 -242l111 230q-62 27 -62 88q0 38 32.5 67t76.5 29q47 0 80 -28.5t33 -67.5q0 -30 -15 -51l-194 -295z" />
<glyph unicode="&#x201c;" horiz-adv-x="763" d="M84 1253q0 31 18 52l193 292l61 -26l-110 -230q61 -27 61 -88q0 -41 -32.5 -69.5t-79.5 -28.5q-45 0 -78 28.5t-33 69.5zM442 1253q0 28 17 52l192 292l62 -26l-111 -230q62 -27 62 -88q0 -41 -33 -69.5t-80 -28.5q-45 0 -77 28.5t-32 69.5z" />
<glyph unicode="&#x201d;" horiz-adv-x="763" d="M51 1184l111 229q-62 27 -62 86q-5 60 53 85t116 0t53 -85q0 -24 -17 -51l-192 -293zM408 1184l110 229q-61 27 -61 86q0 41 31.5 69.5t78.5 28.5t79 -28.5t32 -69.5q0 -25 -16 -51l-193 -293z" />
<glyph unicode="&#x201e;" horiz-adv-x="763" d="M51 -242l111 230q-62 27 -62 88q0 38 32.5 67t76.5 29q47 0 80 -28.5t33 -67.5q0 -30 -15 -51l-194 -295zM408 -242l110 230q-61 27 -61 88q0 38 33 67t77 29q47 0 79 -28.5t32 -67.5q0 -31 -14 -51l-195 -295z" />
<glyph unicode="&#x2022;" horiz-adv-x="688" d="M84 641q0 106 76 182q78 78 184 78q104 0 182 -78t78 -182q0 -106 -77 -183t-183 -77q-108 0 -184 76t-76 184z" />
<glyph unicode="&#x2026;" horiz-adv-x="1417" d="M85 75.5q0 40.5 32 69.5t78.5 29t78.5 -29t32 -69.5t-32 -69.5q-32 -26 -78.5 -26t-78.5 26q-32 29 -32 69.5zM598 76q0 42 33 70t75 27.5t80 -28.5q26 -22 31 -51.5t-7 -54t-39.5 -42t-61.5 -17.5q-47 0 -79 27.5t-32 68.5zM1111 75.5q0 40.5 32 69.5t78 29t77 -29 q32 -29 32 -69.5t-32 -69.5q-31 -26 -77 -26t-78 26q-32 29 -32 69.5z" />
<glyph unicode="&#x202f;" horiz-adv-x="395" />
<glyph unicode="&#x2039;" horiz-adv-x="620" d="M84 543l342 420l143 -76l-276 -344l276 -344l-145 -76z" />
<glyph unicode="&#x203a;" horiz-adv-x="620" d="M51 199l277 344l-277 344l144 76l340 -420l-338 -420z" />
<glyph unicode="&#x205f;" horiz-adv-x="494" />
<glyph unicode="&#x20ac;" horiz-adv-x="1538" d="M80 502v102h160q-9 55 -9 113q0 40 7 98h-158v105h178q62 232 244.5 383t412.5 151q149 0 284 -68t231 -186l-148 -92q-141 166 -348 166q-157 0 -279 -98q-123 -99 -176 -256h541v-105h-565q-9 -49 -9 -98q0 -45 11 -113h563v-102h-537q56 -155 178 -248.5t273 -93.5 q207 0 348 166l148 -93q-98 -120 -231.5 -186.5t-283.5 -66.5q-226 0 -409 145q-179 145 -244 377h-182z" />
<glyph unicode="&#x2122;" horiz-adv-x="1843" d="M51 1319v115h647v-115h-256v-676h-135v676h-256zM829 643v791h168l295 -496l297 496h168v-791h-131v598l-305 -512h-55l-305 512v-598h-132z" />
<glyph unicode="&#x25fc;" horiz-adv-x="1024" d="M0 0v1024h1024v-1024h-1024z" />
<glyph unicode="&#xfb03;" horiz-adv-x="2205" d="M51 874v150h164v76q0 167 99 260.5t257 93.5q96 0 203 -35l-26 -121q-71 23 -121 23q-95 0 -156 -61t-61 -164v-72h624v76q0 167 99 260.5t258 93.5q95 0 202 -35l-26 -121q-71 23 -121 23q-95 0 -156 -61t-61 -164v-72h796v-1024h-194v874h-602v-874h-195v874h-624v-874 h-195v874h-164z" />
<glyph unicode="&#xfb04;" horiz-adv-x="2166" d="M51 874v150h164v76q0 167 99 260.5t257 93.5q96 0 203 -35l-26 -121q-71 23 -121 23q-95 0 -156 -61t-61 -164v-72h624v76q0 167 99 260.5t258 93.5q77 0 147 -20h475v-1434h-194v1298h-252q-71 23 -121 23q-95 0 -156 -61t-61 -164v-72h321v-150h-321v-874h-195v874 h-624v-874h-195v874h-164z" />
</font>
</defs>
</svg>
